<svg xmlns="http://www.w3.org/2000/svg" viewBox="0 0 64 64">
  <defs>
    <linearGradient id="bg" x1="10" y1="6" x2="54" y2="58" gradientUnits="userSpaceOnUse">
      <stop offset="0" stop-color="#f5fbef"/>
      <stop offset="0.54" stop-color="#b8dca4"/>
      <stop offset="1" stop-color="#2f6b43"/>
    </linearGradient>
    <linearGradient id="leaf" x1="18" y1="44" x2="48" y2="14" gradientUnits="userSpaceOnUse">
      <stop offset="0" stop-color="#1c4b31"/>
      <stop offset="1" stop-color="#7fbe69"/>
    </linearGradient>
  </defs>
  <rect width="64" height="64" rx="18" fill="#16271b"/>
  <circle cx="32" cy="32" r="25" fill="url(#bg)"/>
  <path d="M18 35c0-10 8-18 18-18h10v10c0 10-8 18-18 18H18V35Z" fill="url(#leaf)"/>
  <path d="M24 40c7-4 13-9 19-17" fill="none" stroke="#eef8e7" stroke-width="3" stroke-linecap="round"/>
  <path d="M20 24c-4 3-6 7-6 12 0 10 8 18 18 18 4 0 8-1 11-4l7 2-2-7c2-3 3-6 3-9 0-2 0-4-1-6" fill="none" stroke="#eef8e7" stroke-width="4" stroke-linecap="round" stroke-linejoin="round"/>
</svg>
