<svg xmlns="http://www.w3.org/2000/svg" viewBox="0 0 64 64">
  <defs>
    <radialGradient id="bg" cx="34%" cy="28%" r="76%">
      <stop offset="0" stop-color="#f7ffff"/>
      <stop offset="0.34" stop-color="#86f6ff"/>
      <stop offset="0.72" stop-color="#5578ff"/>
      <stop offset="1" stop-color="#07111d"/>
    </radialGradient>
    <filter id="glow" x="-60%" y="-60%" width="220%" height="220%">
      <feGaussianBlur stdDeviation="3" result="blur"/>
      <feMerge>
        <feMergeNode in="blur"/>
        <feMergeNode in="SourceGraphic"/>
      </feMerge>
    </filter>
  </defs>
  <rect width="64" height="64" rx="18" fill="#02070d"/>
  <circle cx="32" cy="32" r="24" fill="url(#bg)" filter="url(#glow)"/>
  <path d="M43 43c-3 3-7 5-12 5-10 0-18-7-18-16s8-16 18-16c5 0 9 2 12 5l-5 6c-2-2-4-3-7-3-5 0-9 4-9 8s4 8 9 8c3 0 5-1 7-3l5 6Z" fill="#03111a"/>
  <path d="M45 16c5 5 8 10 8 16s-3 11-8 16" fill="none" stroke="#b9fbff" stroke-width="2" stroke-linecap="round" opacity=".65"/>
</svg>
